<svg width="128" height="128" viewBox="0 0 128 128" fill="none" xmlns="http://www.w3.org/2000/svg">
    <circle cx="64" cy="64" r="64" fill="#CCAA66"/>
    <path d="M50.9989 66.9998C62.0272 66.9998 70.9673 56.2547 70.9673 42.9999C70.9673 29.7451 62.0272 19 50.9989 19C39.9707 19 31.0306 29.7451 31.0306 42.9999C31.0306 56.2547 39.9707 66.9998 50.9989 66.9998Z" fill="#111111"/>
    <path d="M90.1367 87.4002C86.5424 80.2002 79.7532 74.2003 70.9671 70.6003C68.5709 69.8003 65.7753 69.8003 63.7785 71.0003C59.7848 73.4003 55.7911 74.6003 50.9987 74.6003C46.2063 74.6003 42.2126 73.4003 38.219 71.0003C36.2221 70.2003 33.4266 69.8003 31.0304 71.0003C22.2443 74.6003 15.455 80.6002 11.8607 87.8002C9.06515 93.0002 13.4582 99.0001 19.4487 99.0001H82.5487C88.5393 99.0001 92.9323 93.0002 90.1367 87.4002Z" fill="#111111"/>
    <path d="M90.1367 87.4002C86.5424 80.2002 79.7532 74.2003 70.9671 70.6003C68.5709 69.8003 65.7753 69.8003 63.7785 71.0003C59.7848 73.4003 55.7911 74.6003 50.9987 74.6003C46.2063 74.6003 42.2126 73.4003 38.219 71.0003C36.2221 70.2003 33.4266 69.8003 31.0304 71.0003C22.2443 74.6003 15.455 80.6002 11.8607 87.8002C9.06515 93.0002 13.4582 99.0001 19.4487 99.0001H82.5487C88.5393 99.0001 92.9323 93.0002 90.1367 87.4002Z" fill="#111111"/>
    <path d="M79.0007 66.9998C90.0289 66.9998 98.9691 56.2547 98.9691 42.9999C98.9691 29.7451 90.0289 19 79.0007 19C67.9725 19 59.0323 29.7451 59.0323 42.9999C59.0323 56.2547 67.9725 66.9998 79.0007 66.9998Z" fill="#999999"/>
    <path d="M118.138 87.4002C114.544 80.2002 107.755 74.2003 98.9688 70.6003C96.5726 69.8003 93.777 69.8003 91.7802 71.0003C87.7865 73.4003 83.7928 74.6003 79.0004 74.6003C74.208 74.6003 70.2143 73.4003 66.2207 71.0003C64.2238 70.2003 61.4283 69.8003 59.0321 71.0003C50.246 74.6003 43.4567 80.6002 39.8624 87.8002C37.0669 93.0002 41.4599 99.0001 47.4504 99.0001H110.55C116.541 99.0001 120.934 93.0002 118.138 87.4002Z" fill="#999999"/>
    <path d="M118.138 87.4002C114.544 80.2002 107.755 74.2003 98.9688 70.6003C96.5726 69.8003 93.777 69.8003 91.7802 71.0003C87.7865 73.4003 83.7928 74.6003 79.0004 74.6003C74.208 74.6003 70.2143 73.4003 66.2207 71.0003C64.2238 70.2003 61.4283 69.8003 59.0321 71.0003C50.246 74.6003 43.4567 80.6002 39.8624 87.8002C37.0669 93.0002 41.4599 99.0001 47.4504 99.0001H110.55C116.541 99.0001 120.934 93.0002 118.138 87.4002Z" fill="#999999"/>
    <path d="M64 0C28.64 0 0 28.64 0 64C0 99.36 28.64 128 64 128C99.36 128 128 99.36 128 64C128 28.64 99.36 0 64 0ZM64 115.2C35.712 115.2 12.8 92.288 12.8 64C12.8 52.16 16.864 41.312 23.584 32.64L95.36 104.416C86.688 111.136 75.84 115.2 64 115.2ZM104.416 95.36L32.64 23.584C41.312 16.864 52.16 12.8 64 12.8C92.288 12.8 115.2 35.712 115.2 64C115.2 75.84 111.136 86.688 104.416 95.36Z" fill="#191919"/>
    </svg>
    